# xmcd
#
# Track frame offsets:
#	150
#	15115
#	29870
#	44459
#	55899
#	70139
#	85578
#	100082
#	115938
#	130123
#	143736
#	156945
#	172635
#	187892
#	202396
#	214351
#	228855
#	250665
#
# Disc length: 3681 seconds
#
# Revision: 0
# Processed by: cddbd v1.4PL0 Copyright (c) Steve Scherf et al.
# Submitted via: dBpowerAMP V4.0
#
DISCID=ef0e5f12
DTITLE=Apache Moon - I Remember Everything
DYEAR=1900
DGENRE=Country
TTITLE0=In The Heat Of The Moment
TTITLE1=You're The Best Mistake
TTITLE2=Louisiana Lightnin'
TTITLE3=10 Feet Tall and Bullet Proof
TTITLE4=Dysfunctional Co-Dependent
TTITLE5=I Remember Everything
TTITLE6=She Didn't Do The Texas Two-Step
TTITLE7=Three Quarters Crazy
TTITLE8=90 Proof Memory
TTITLE9=A World Of Hurt
TTITLE10=You Love A Saturday Night
TTITLE11=What He Calls Love
TTITLE12=Honky-Tonk Crazy
TTITLE13=Sleepin' Like A Baby
TTITLE14=Small Town Kids
TTITLE15=I Can't Let Her See Me Like This
TTITLE16=12 Year Old Whiskey and 20 Year Old Woman
TTITLE17=DATA
EXTD=
EXTT0=
EXTT1=
EXTT2=
EXTT3=
EXTT4=
EXTT5=
EXTT6=
EXTT7=
EXTT8=
EXTT9=
EXTT10=
EXTT11=
EXTT12=
EXTT13=
EXTT14=
EXTT15=
EXTT16=
EXTT17=
PLAYORDER=
